HIERARCHY
ROOT Hips
{
  OFFSET 52.8468 91.6337 4.76765
  CHANNELS 6 Xposition Yposition Zposition Zrotation Xrotation Yrotation
  JOINT spine
  {
    OFFSET 0 6.84637 0.3937
    CHANNELS 3 Zrotation Xrotation Yrotation
    JOINT spine1
    {
      OFFSET 0 9.49621 0
      CHANNELS 3 Zrotation Xrotation Yrotation
      JOINT spine2
      {
        OFFSET 0 9.09909 0
        CHANNELS 3 Zrotation Xrotation Yrotation
        JOINT Neck
        {
          OFFSET 0 23.3612 1.11378
          CHANNELS 3 Zrotation Xrotation Yrotation
          JOINT Head
          {
            OFFSET 0 7.05802 0
            CHANNELS 3 Zrotation Xrotation Yrotation
            End Site
            {
              OFFSET 0 17.0844 -5.63419
            }
          }
        }
        JOINT RightShoulder
        {
          OFFSET -3.83136 9.82631 -0.533491
          CHANNELS 3 Zrotation Xrotation Yrotation
          JOINT RightArm
          {
            OFFSET 0 12.8881 0
            CHANNELS 3 Zrotation Xrotation Yrotation
            JOINT RightArmRoll
            {
              OFFSET 0 6.50617 0
              CHANNELS 3 Zrotation Xrotation Yrotation
              JOINT RightForeArm
              {
                OFFSET 0 18.9501 0
                CHANNELS 3 Zrotation Xrotation Yrotation
                JOINT RightForeArmRoll
                {
                  OFFSET 0 7.30092 0
                  CHANNELS 3 Zrotation Xrotation Yrotation
                  JOINT RightHand
                  {
                    OFFSET 0 14.6514 0
                    CHANNELS 3 Zrotation Xrotation Yrotation
                    End Site
                    {
                      OFFSET 0 0 0
                    }
                  }
                }
              }
            }
          }
        }
        JOINT LeftShoulder
        {
          OFFSET 3.83136 9.82631 -0.533491
          CHANNELS 3 Zrotation Xrotation Yrotation
          JOINT LeftArm
          {
            OFFSET 0 12.8881 0
            CHANNELS 3 Zrotation Xrotation Yrotation
            JOINT LeftArmRoll
            {
              OFFSET 0 6.50617 0
              CHANNELS 3 Zrotation Xrotation Yrotation
              JOINT LeftForeArm
              {
                OFFSET 0 18.9501 0
                CHANNELS 3 Zrotation Xrotation Yrotation
                JOINT LeftForeArmRoll
                {
                  OFFSET 0 7.30092 0
                  CHANNELS 3 Zrotation Xrotation Yrotation
                  JOINT LeftHand
                  {
                    OFFSET 0 14.6514 0
                    CHANNELS 3 Zrotation Xrotation Yrotation
                    End Site
                    {
                      OFFSET 0 0 0
                    }
                  }
                }
              }
            }
          }
        }
      }
    }
  }
  JOINT RightUpLeg
  {
    OFFSET -6.06837 -1.11278 -0.933477
    CHANNELS 3 Zrotation Xrotation Yrotation
    JOINT RightUpLegRoll
    {
      OFFSET 0 17.1796 0
      CHANNELS 3 Zrotation Xrotation Yrotation
      JOINT RightLeg
      {
        OFFSET 0 -21.2743 0
        CHANNELS 3 Zrotation Xrotation Yrotation
        JOINT RightLegRoll
        {
          OFFSET 0 21.3439 0
          CHANNELS 3 Zrotation Xrotation Yrotation
          JOINT RightFoot
          {
            OFFSET 0 17.7652 0
            CHANNELS 3 Zrotation Xrotation Yrotation
            JOINT RightToeBase
            {
              OFFSET 0 14.8508 0
              CHANNELS 3 Zrotation Xrotation Yrotation
              End Site
              {
                OFFSET 0.0062947 7.19214 -0.829004
              }
            }
          }
        }
      }
    }
  }
  JOINT LeftUpLeg
  {
    OFFSET 6.06837 -1.11278 -0.933477
    CHANNELS 3 Zrotation Xrotation Yrotation
    JOINT LeftUpLegRoll
    {
      OFFSET 0 17.1797 0
      CHANNELS 3 Zrotation Xrotation Yrotation
      JOINT LeftLeg
      {
        OFFSET 0 21.2742 0
        CHANNELS 3 Zrotation Xrotation Yrotation
        JOINT LeftLegRoll
        {
          OFFSET 0 21.5412 0
          CHANNELS 3 Zrotation Xrotation Yrotation
          JOINT LeftFoot
          {
            OFFSET 0 17.5679 0
            CHANNELS 3 Zrotation Xrotation Yrotation
            JOINT LeftToeBase
            {
              OFFSET 0 14.8508 0
              CHANNELS 3 Zrotation Xrotation Yrotation
              End Site
              {
                OFFSET -0.0282102 7.19214 -0.829005
              }
            }
          }
        }
      }
    }
  }
}
MOTION
Frames: 13
Frame Time: 0.00208333
50.6976 91.485 5.15042 -5.30957 3.55033 -0.881553 -1.23492 -3.5553 0.295575 -2.44695 -3.11431 0.663915 -2.4468 -1.47016 0.704777 25.6938 22.6211 -14.3855 -5.58326 -0.66477 -5.04659 16.8443 -22.1218 -22.5991 -32.063 48.1425 126.908 -1.24578e-005 1.25045e-006 1.14935e-006 -5.03108 36.8693 3.00844 -8.0315e-006 -5.18162e-006 -3 8.029 -4.95153 0.697711 -72.9352 6.1701 -1.21338 -93.429 8.08475 -26.7553 -6.96827e-010 -1.44771e-008 2.82981e-006 -9.8087 1.76423 0.380845 4.28272e-006 -5.28104e-006 3.01609 -8.02892 -4.95146 -0.697705 -176.716 6.59571 -3.80468 180 7.0159e-015 179.131 177.99 4.30214 179.972 6.41127e-007 1.71655e-006 0.0379932 -18.7659 68.1227 19.6009 8.1365 25.2327 -3.48774 -167.461 5.31795 -4.24432 4.54188e-006 -4.6773e-006 -0.941259 -1.74546 -8.51526 0.114053 -1.13125e-006 -3.04726e-006 -0.174276 20.0351 69.6192 -20.9999 -8.13649 25.2327 3.48774 
50.6917 91.4855 5.15561 -5.30754 3.55771 -0.856531 -1.23448 -3.55569 0.295358 -2.44667 -3.1156 0.662756 -2.4462 -1.47145 0.703621 25.6496 22.6242 -14.3657 -5.53865 -0.681045 -5.04003 16.8553 -22.1127 -22.5834 -31.8903 48.1483 126.784 -1.24578e-005 1.25045e-006 1.14935e-006 -5.07572 36.6892 3.00729 -8.0315e-006 -5.18162e-006 -3 8.029 -4.95153 0.697711 -72.9431 6.15247 -1.20392 -93.4323 8.07804 -26.724 -6.96832e-010 -1.44771e-008 2.82981e-006 -9.83493 1.81783 0.387676 4.28272e-006 -5.28104e-006 3.01608 -8.02892 -4.95146 -0.697705 -176.716 6.59935 -3.80758 180 7.0159e-015 179.131 177.994 4.29893 179.972 6.41127e-007 1.71655e-006 0.0379999 -18.7667 68.1237 19.6018 8.1365 25.2327 -3.48774 -167.462 5.3288 -4.24246 4.54188e-006 -4.6773e-006 -0.941218 -1.74468 -8.50811 0.114252 -1.13125e-006 -3.04726e-006 -0.174258 20.0343 69.6184 -20.9991 -8.13649 25.2327 3.48774 
50.6769 91.4851 5.15346 -5.30554 3.56492 -0.831137 -1.23417 -3.55588 0.295053 -2.44654 -3.11652 0.661819 -2.44587 -1.47238 0.702687 25.6101 22.6229 -14.3473 -5.49996 -0.694414 -5.03436 16.8722 -22.1065 -22.5699 -31.7231 48.1482 126.665 -1.24578e-005 1.25045e-006 1.14935e-006 -5.12248 36.5059 3.00605 -8.0315e-006 -5.18162e-006 -3 8.029 -4.95153 0.697711 -72.9463 6.13415 -1.19496 -93.4403 8.07305 -26.6929 -6.96807e-010 -1.44771e-008 2.82981e-006 -9.85964 1.86927 0.394233 4.28272e-006 -5.28104e-006 3.01608 -8.02892 -4.95146 -0.697705 -176.717 6.60274 -3.81037 180 7.0159e-015 179.131 177.998 4.29552 179.972 6.41127e-007 1.71655e-006 0.0380067 -18.7677 68.1248 19.6028 8.1365 25.2327 -3.48774 -167.464 5.33983 -4.24061 4.54188e-006 -4.6773e-006 -0.941175 -1.74396 -8.50127 0.114382 -1.13125e-006 -3.04726e-006 -0.174231 20.0335 69.6176 -20.9982 -8.13649 25.2327 3.48774 
50.6873 91.4847 5.1518 -5.3036 3.5719 -0.805292 -1.23401 -3.55583 0.294651 -2.44659 -3.11702 0.661148 -2.44585 -1.47287 0.702019 25.5762 22.6164 -14.3305 -5.46822 -0.704366 -5.02977 16.8957 -22.1035 -22.559 -31.5633 48.1417 126.551 -1.24578e-005 1.25045e-006 1.14935e-006 -5.17137 36.3197 3.00468 -8.0315e-006 -5.18162e-006 -3 8.029 -4.95153 0.697711 -72.944 6.11508 -1.1866 -93.454 8.07004 -26.6617 -6.96815e-010 -1.44771e-008 2.82981e-006 -9.88268 1.9183 0.400479 4.28272e-006 -5.28104e-006 3.01607 -8.02892 -4.95146 -0.697705 -176.717 6.60583 -3.81305 180 7.0159e-015 179.131 178.003 4.29188 179.972 6.41127e-007 1.71655e-006 0.0380135 -18.7687 68.126 19.6039 8.1365 25.2327 -3.48774 -167.465 5.35108 -4.2388 4.54188e-006 -4.6773e-006 -0.941131 -1.74331 -8.49482 0.114433 -1.13125e-006 -3.04726e-006 -0.174195 20.0325 69.6167 -20.9972 -8.13649 25.2327 3.48774 
50.6918 91.4854 5.15475 -5.3019 3.57853 -0.778992 -1.2339 -3.55548 0.294125 -2.44665 -3.11701 0.660753 -2.44597 -1.47286 0.701624 25.5458 22.6055 -14.315 -5.441 -0.711522 -5.02623 16.9256 -22.1039 -22.5509 -31.4108 48.1287 126.445 -1.24578e-005 1.25045e-006 1.14935e-006 -5.22373 36.1279 3.0036 -8.0315e-006 -5.18162e-006 -3 8.029 -4.95153 0.697711 -72.9372 6.09483 -1.17849 -93.4726 8.06911 -26.6304 -6.96822e-010 -1.44771e-008 2.82981e-006 -9.90436 1.96565 0.406524 4.28273e-006 -5.28104e-006 3.01606 -8.02892 -4.95146 -0.697705 -176.718 6.60846 -3.8158 180 7.0159e-015 179.131 178.007 4.28795 179.972 6.41127e-007 1.71655e-006 0.0380203 -18.7698 68.1273 19.6051 8.1365 25.2327 -3.48774 -167.466 5.36241 -4.23713 4.54188e-006 -4.6773e-006 -0.941085 -1.74268 -8.48873 0.114407 -1.13125e-006 -3.04726e-006 -0.174152 20.0315 69.6157 -20.9961 -8.13649 25.2327 3.48774 
50.6884 91.4842 5.15102 -5.30057 3.58479 -0.752324 -1.23373 -3.55481 0.293462 -2.44654 -3.11653 0.660595 -2.44606 -1.47238 0.701458 25.5164 22.5916 -14.3001 -5.41535 -0.716926 -5.02357 16.9605 -22.1072 -22.5454 -31.2635 48.1099 126.348 -1.24578e-005 1.25045e-006 1.14935e-006 -5.28047 35.9278 3.0032 -8.0315e-006 -5.18162e-006 -3 8.029 -4.95153 0.697711 -72.9275 6.07319 -1.17026 -93.4946 8.07005 -26.5988 -6.96823e-010 -1.44771e-008 2.82981e-006 -9.92505 2.01214 0.412495 4.28272e-006 -5.28104e-006 3.01605 -8.02892 -4.95146 -0.697705 -176.718 6.6106 -3.8188 180 7.0159e-015 179.131 178.012 4.28366 179.972 6.41127e-007 1.71655e-006 0.038027 -18.7711 68.1288 19.6064 8.1365 25.2327 -3.48774 -167.467 5.3737 -4.23561 4.54188e-006 -4.6773e-006 -0.941036 -1.74201 -8.48289 0.114315 -1.13125e-006 -3.04726e-006 -0.174102 20.0305 69.6147 -20.9951 -8.13649 25.2327 3.48774 
50.6898 91.4831 5.15278 -5.29952 3.59076 -0.725348 -1.23352 -3.55387 0.29268 -2.44631 -3.11563 0.660634 -2.44613 -1.47148 0.701486 25.4881 22.5751 -14.2857 -5.39148 -0.720703 -5.02164 17.0003 -22.1131 -22.5419 -31.12 48.0861 126.257 -1.24578e-005 1.25045e-006 1.14935e-006 -5.34104 35.7204 3.00334 -8.0315e-006 -5.18162e-006 -3 8.029 -4.95153 0.697711 -72.915 6.05038 -1.16197 -93.5197 8.07266 -26.5672 -6.96802e-010 -1.44771e-008 2.82981e-006 -9.94474 2.05768 0.418377 4.28272e-006 -5.28104e-006 3.01604 -8.02892 -4.95146 -0.697705 -176.719 6.61232 -3.82197 180 7.0159e-015 179.131 178.017 4.27908 179.972 6.41127e-007 1.71655e-006 0.0380338 -18.7724 68.1303 19.6078 8.1365 25.2327 -3.48774 -167.468 5.38496 -4.2342 4.54188e-006 -4.6773e-006 -0.940984 -1.74129 -8.47725 0.114167 -1.13125e-006 -3.04726e-006 -0.174046 20.0295 69.6137 -20.9941 -8.13649 25.2327 3.48774 
50.6939 91.4835 5.14791 -5.29867 3.59651 -0.698121 -1.2333 -3.5527 0.291795 -2.44601 -3.1144 0.660836 -2.44623 -1.47025 0.701673 25.4612 22.5563 -14.2719 -5.36962 -0.722979 -5.02033 17.0444 -22.1212 -22.5402 -30.9792 48.0579 126.172 -1.24578e-005 1.25045e-006 1.14935e-006 -5.40489 35.5068 3.00391 -8.0315e-006 -5.18162e-006 -3 8.029 -4.95153 0.697711 -72.9 6.02663 -1.15369 -93.5476 8.0767 -26.5357 -6.96813e-010 -1.44771e-008 2.82981e-006 -9.9634 2.10215 0.424153 4.28272e-006 -5.28104e-006 3.01603 -8.02892 -4.95146 -0.697705 -176.719 6.61374 -3.82523 180 7.0159e-015 179.131 178.022 4.27426 179.971 6.41127e-007 1.71655e-006 0.0380406 -18.7739 68.132 19.6093 8.1365 25.2327 -3.48774 -167.469 5.39623 -4.23283 4.54188e-006 -4.6773e-006 -0.940929 -1.74055 -8.47174 0.11397 -1.13125e-006 -3.04726e-006 -0.173984 20.0284 69.6127 -20.993 -8.13649 25.2327 3.48774 
50.6936 91.4913 5.14846 -5.29791 3.60215 -0.670704 -1.23308 -3.55135 0.290824 -2.44567 -3.11289 0.661163 -2.44638 -1.46874 0.701982 25.4359 22.5356 -14.2587 -5.35 -0.723881 -5.01951 17.0926 -22.1309 -22.5396 -30.8396 48.0258 126.09 -1.24578e-005 1.25045e-006 1.14935e-006 -5.47144 35.2879 3.00478 -8.0315e-006 -5.18162e-006 -3 8.029 -4.95153 0.697711 -72.8827 6.00217 -1.14548 -93.5779 8.08194 -26.5045 -6.96822e-010 -1.44771e-008 2.82981e-006 -9.98101 2.14545 0.429807 4.28272e-006 -5.28104e-006 3.01602 -8.02892 -4.95146 -0.697705 -176.719 6.61495 -3.82852 180 7.0159e-015 179.131 178.027 4.2692 179.971 6.41127e-007 1.71655e-006 0.0380474 -18.7754 68.1338 19.6109 8.1365 25.2327 -3.48774 -167.47 5.40753 -4.23147 4.54188e-006 -4.6773e-006 -0.940872 -1.73978 -8.46633 0.113732 -1.13125e-006 -3.04726e-006 -0.173916 20.0273 69.6116 -20.9918 -8.13649 25.2327 3.48774 
50.6932 91.4898 5.15244 -5.29717 3.60774 -0.643155 -1.23289 -3.54989 0.289785 -2.44535 -3.11118 0.66158 -2.4466 -1.46704 0.702379 25.4123 22.5132 -14.246 -5.33282 -0.723535 -5.01906 17.1445 -22.142 -22.5398 -30.7001 47.9904 126.009 -1.24578e-005 1.25045e-006 1.14935e-006 -5.54016 35.0647 3.00582 -8.0315e-006 -5.18162e-006 -3 8.029 -4.95153 0.697711 -72.8632 5.97722 -1.13743 -93.6102 8.08817 -26.4737 -6.96832e-010 -1.44771e-008 2.82981e-006 -9.99754 2.18748 0.435322 4.28272e-006 -5.28104e-006 3.01602 -8.02892 -4.95146 -0.697705 -176.72 6.61605 -3.83176 180 7.0159e-015 179.131 178.032 4.26398 179.971 6.41127e-007 1.71655e-006 0.0380542 -18.7769 68.1356 19.6126 8.1365 25.2327 -3.48774 -167.47 5.41889 -4.23004 4.54188e-006 -4.6773e-006 -0.940814 -1.73901 -8.46095 0.113459 -1.13125e-006 -3.04726e-006 -0.173842 20.0262 69.6105 -20.9906 -8.13649 25.2327 3.48774 
50.6813 91.486 5.14944 -5.29635 3.61338 -0.615533 -1.23274 -3.54834 0.288693 -2.44509 -3.10935 0.662049 -2.44694 -1.4652 0.702828 25.3906 22.4896 -14.2339 -5.31832 -0.722066 -5.01887 17.1997 -22.154 -22.5403 -30.5594 47.9523 125.928 -1.24578e-005 1.25045e-006 1.14935e-006 -5.61049 34.8381 3.00692 -8.0315e-006 -5.18162e-006 -3 8.029 -4.95153 0.697711 -72.8418 5.95201 -1.12958 -93.6443 8.09516 -26.4436 -6.96835e-010 -1.44771e-008 2.82981e-006 -10.013 2.22814 0.440681 4.28272e-006 -5.28104e-006 3.01601 -8.02892 -4.95146 -0.697705 -176.72 6.61714 -3.83488 180 7.0159e-015 179.131 178.037 4.25864 179.971 6.41127e-007 1.71655e-006 0.038061 -18.7785 68.1374 19.6143 8.1365 25.2327 -3.48774 -167.471 5.43034 -4.2285 4.54188e-006 -4.6773e-006 -0.940753 -1.73823 -8.45555 0.11316 -1.13125e-006 -3.04726e-006 -0.173762 20.025 69.6093 -20.9894 -8.13649 25.2327 3.48774 
50.6794 91.4864 5.14142 -5.29537 3.61915 -0.587897 -1.23266 -3.54678 0.287567 -2.44494 -3.10745 0.662533 -2.44741 -1.4633 0.703294 25.3711 22.4649 -14.2223 -5.30672 -0.719601 -5.01879 17.2579 -22.1665 -22.5407 -30.4161 47.912 125.844 -1.24578e-005 1.25045e-006 1.14935e-006 -5.68189 34.6091 3.00796 -8.0315e-006 -5.18162e-006 -3 8.029 -4.95153 0.697711 -72.8186 5.92675 -1.12201 -93.6798 8.10268 -26.4143 -6.96825e-010 -1.44771e-008 2.82981e-006 -10.0273 2.26731 0.445869 4.28272e-006 -5.28104e-006 3.016 -8.02892 -4.95146 -0.697705 -176.721 6.61831 -3.8378 180 7.0159e-015 179.131 178.042 4.2532 179.971 6.41127e-007 1.71655e-006 0.0380678 -18.7801 68.1393 19.616 8.1365 25.2327 -3.48774 -167.473 5.4419 -4.22679 4.54188e-006 -4.6773e-006 -0.94069 -1.73746 -8.45009 0.112841 -1.13125e-006 -3.04726e-006 -0.173676 20.0238 69.6081 -20.9881 -8.13649 25.2327 3.48774 
50.6805 91.483 5.14259 -5.29414 3.62512 -0.560306 -1.23268 -3.54524 0.286423 -2.44493 -3.10556 0.662997 -2.44804 -1.46141 0.703742 25.354 22.4396 -14.2112 -5.29823 -0.716266 -5.01872 17.3187 -22.1791 -22.5404 -30.2691 47.8702 125.756 -1.24578e-005 1.25045e-006 1.14935e-006 -5.75381 34.3787 3.0088 -8.0315e-006 -5.18162e-006 -3 8.029 -4.95153 0.697711 -72.7939 5.90169 -1.11479 -93.7164 8.11051 -26.386 -6.9682e-010 -1.44771e-008 2.82981e-006 -10.0405 2.3049 0.450868 4.28272e-006 -5.28104e-006 3.01599 -8.02892 -4.95146 -0.697705 -176.723 6.61967 -3.84045 180 7.0159e-015 179.131 178.047 4.24773 179.97 6.41127e-007 1.71655e-006 0.0380746 -18.7818 68.1412 19.6177 8.1365 25.2327 -3.48774 -167.474 5.45361 -4.22486 4.54188e-006 -4.6773e-006 -0.940626 -1.73671 -8.4445 0.112511 -1.13125e-006 -3.04726e-006 -0.173584 20.0224 69.6068 -20.9867 -8.13649 25.2327 3.48774 
